HIERARCHY
ROOT Hips
{
	OFFSET 53.111801 -9.253544 85.535301
	CHANNELS 6 Xposition Yposition Zposition Xrotation Yrotation Zrotation
	JOINT spine
	{
		OFFSET 0.000000 -0.367607 6.392601
		CHANNELS 3 Xrotation Yrotation Zrotation
		JOINT spine1
		{
			OFFSET 0.000000 -0.000001 9.176109
			CHANNELS 3 Xrotation Yrotation Zrotation
			JOINT spine2
			{
				OFFSET 0.000000 -0.000002 8.792381
				CHANNELS 3 Xrotation Yrotation Zrotation
				JOINT Neck
				{
					OFFSET 0.000000 -1.076243 22.573700
					CHANNELS 3 Xrotation Yrotation Zrotation
					JOINT Head
					{
						OFFSET 0.000000 -0.000001 6.820114
						CHANNELS 3 Xrotation Yrotation Zrotation
						End Site
						{
							OFFSET 0.000000 5.444268 16.508499
						}
					}
				}
				JOINT RightShoulder
				{
					OFFSET -3.702209 0.515507 9.495087
					CHANNELS 3 Xrotation Yrotation Zrotation
					JOINT RightArm
					{
						OFFSET 0.000000 -0.000003 12.453705
						CHANNELS 3 Xrotation Yrotation Zrotation
						JOINT RightArmRoll
						{
							OFFSET 0.000000 -0.000001 6.286865
							CHANNELS 3 Xrotation Yrotation Zrotation
							JOINT RightForeArm
							{
								OFFSET 0.000000 -0.000003 18.311401
								CHANNELS 3 Xrotation Yrotation Zrotation
								JOINT RightForeArmRoll
								{
									OFFSET 0.000000 -0.000001 7.054825
									CHANNELS 3 Xrotation Yrotation Zrotation
									JOINT RightHand
									{
										OFFSET 0.000000 -0.000002 14.157501
										CHANNELS 3 Xrotation Yrotation Zrotation
										End Site
										{
											OFFSET 0.000000 0.000000 0.100006
										}
									}
								}
							}
						}
					}
				}
				JOINT LeftShoulder
				{
					OFFSET 3.702209 0.515507 9.495087
					CHANNELS 3 Xrotation Yrotation Zrotation
					JOINT LeftArm
					{
						OFFSET 0.000000 -0.000003 12.453705
						CHANNELS 3 Xrotation Yrotation Zrotation
						JOINT LeftArmRoll
						{
							OFFSET 0.000000 -0.000001 6.286865
							CHANNELS 3 Xrotation Yrotation Zrotation
							JOINT LeftForeArm
							{
								OFFSET 0.000000 -0.000003 18.311401
								CHANNELS 3 Xrotation Yrotation Zrotation
								JOINT LeftForeArmRoll
								{
									OFFSET 0.000000 -0.000001 7.054825
									CHANNELS 3 Xrotation Yrotation Zrotation
									JOINT LeftHand
									{
										OFFSET 0.000000 -0.000002 14.157501
										CHANNELS 3 Xrotation Yrotation Zrotation
										End Site
										{
											OFFSET 0.000000 0.000000 0.100006
										}
									}
								}
							}
						}
					}
				}
			}
		}
	}
	JOINT RightUpLeg
	{
		OFFSET -5.666149 0.871611 -1.039032
		CHANNELS 3 Xrotation Yrotation Zrotation
		JOINT RightUpLegRoll
		{
			OFFSET 0.000000 -0.000003 16.600502
			CHANNELS 3 Xrotation Yrotation Zrotation
			JOINT RightLeg
			{
				OFFSET 0.000000 0.000003 -20.557198
				CHANNELS 3 Xrotation Yrotation Zrotation
				JOINT RightLegRoll
				{
					OFFSET 0.000000 -0.000003 20.624397
					CHANNELS 3 Xrotation Yrotation Zrotation
					JOINT RightFoot
					{
						OFFSET 0.000000 -0.000003 17.166397
						CHANNELS 3 Xrotation Yrotation Zrotation
						JOINT RightToeBase
						{
							OFFSET 0.000000 -0.000003 14.350204
							CHANNELS 3 Xrotation Yrotation Zrotation
							End Site
							{
								OFFSET 0.006081 0.801060 6.949707
							}
						}
					}
				}
			}
		}
	}
	JOINT LeftUpLeg
	{
		OFFSET 5.666149 0.871611 -1.039032
		CHANNELS 3 Xrotation Yrotation Zrotation
		JOINT LeftUpLegRoll
		{
			OFFSET 0.000000 -0.000003 16.600601
			CHANNELS 3 Xrotation Yrotation Zrotation
			JOINT LeftLeg
			{
				OFFSET 0.000000 -0.000004 20.557098
				CHANNELS 3 Xrotation Yrotation Zrotation
				JOINT LeftLegRoll
				{
					OFFSET 0.000000 -0.000003 20.815102
					CHANNELS 3 Xrotation Yrotation Zrotation
					JOINT LeftFoot
					{
						OFFSET 0.000000 -0.000003 16.975693
						CHANNELS 3 Xrotation Yrotation Zrotation
						JOINT LeftToeBase
						{
							OFFSET 0.000000 -0.000003 14.350204
							CHANNELS 3 Xrotation Yrotation Zrotation
							End Site
							{
								OFFSET -0.027260 0.801059 6.949707
							}
						}
					}
				}
			}
		}
	}
}
MOTION
Frames: 7
Frame Time: 0.041667
52.454697 -9.239079 85.548904 -4.591680 2.391549 -4.688376 -1.207073 -0.132325 -0.021215 1.588617 -0.264434 -0.036768 3.233704 -0.264854 -0.033598 10.663425 0.863944 2.403133 3.137504 2.188328 2.064348 5.316024 -51.820461 7.416838 -42.830795 -130.049916 -96.380827 -0.000002 -0.000001 -0.000009 108.515675 9.769360 -21.214177 0.000007 0.000001 -3.005820 -5.000240 -7.998713 0.000186 0.672989 50.075156 -2.010005 -49.522348 128.760144 79.585849 -0.000000 -0.000006 0.000006 103.194856 -3.090048 12.292487 -0.000000 -0.000001 3.000002 -5.000219 7.998813 -0.000157 3.786361 -174.955965 1.678272 -179.999991 0.000005 -1.196999 175.157729 -3.126825 -0.475751 -0.000002 -0.000003 0.040579 68.975287 6.923145 2.051586 25.456955 -7.355615 0.000000 2.978555 171.395456 -2.103245 -0.000005 -0.000005 -1.042120 -8.959158 0.826746 0.770095 -0.000004 0.000002 -0.042547 71.102693 -6.098730 -4.149194 25.458569 7.355616 -0.002453 
52.441395 -9.259771 85.552711 -4.572415 2.386818 -4.696054 -1.214712 -0.129989 -0.022507 1.573356 -0.259748 -0.039015 3.218433 -0.260196 -0.035900 10.737124 0.824440 2.401683 3.097565 2.219136 2.065021 5.364139 -51.816274 7.475865 -42.926188 -129.985412 -96.475049 -0.000002 -0.000001 -0.000006 108.476040 9.763902 -21.187805 0.000003 -0.000002 -3.005819 -5.000241 -7.998714 0.000184 0.730222 50.078015 -2.080094 -49.488791 128.684985 79.458125 0.000001 -0.000008 0.000004 103.194050 -3.085066 12.276888 -0.000004 -0.000001 3.000000 -5.000220 7.998813 -0.000157 3.762922 -174.953848 1.671882 -179.999991 0.000005 -1.197000 175.156185 -3.120842 -0.475329 -0.000002 -0.000002 0.040578 68.974911 6.923301 2.051339 25.456952 -7.355615 -0.000002 2.963628 171.400346 -2.099276 -0.000005 -0.000005 -1.042230 -8.954741 0.831909 0.769444 -0.000003 0.000002 -0.042482 71.103710 -6.100974 -4.143013 25.458574 7.355616 -0.002454 
52.441696 -9.252451 85.588509 -4.556210 2.383373 -4.703547 -1.221125 -0.128070 -0.023705 1.560535 -0.255894 -0.041190 3.205612 -0.256368 -0.038121 10.796032 0.788461 2.400755 3.074107 2.246976 2.065728 5.408818 -51.812026 7.530727 -43.013048 -129.919187 -96.555755 -0.000002 -0.000003 -0.000007 108.442750 9.759586 -21.166188 0.000004 0.000001 -3.005819 -5.000239 -7.998715 0.000183 0.781128 50.085186 -2.141728 -49.462806 128.608159 79.343009 -0.000001 -0.000007 0.000006 103.193927 -3.080234 12.262322 -0.000003 0.000000 2.999996 -5.000221 7.998815 -0.000158 3.743051 -174.952727 1.664328 -179.999991 0.000005 -1.196999 175.155270 -3.111867 -0.475631 -0.000003 -0.000002 0.040578 68.974775 6.923541 2.050891 25.456957 -7.355615 0.000001 2.953112 171.405250 -2.097128 -0.000005 -0.000005 -1.042490 -8.948123 0.837549 0.768665 -0.000003 0.000002 -0.042465 71.103676 -6.103575 -4.135949 25.458569 7.355616 -0.002453 
52.436794 -9.246372 85.582809 -4.543523 2.381422 -4.710793 -1.226114 -0.126638 -0.024783 1.550535 -0.253017 -0.043264 3.195621 -0.253516 -0.040230 10.838055 0.756363 2.400331 3.068901 2.271741 2.066426 5.447532 -51.807835 7.578343 -43.089529 -129.851458 -96.621550 -0.000001 -0.000000 -0.000008 108.415832 9.756828 -21.148376 0.000003 0.000001 -3.005816 -5.000238 -7.998715 0.000183 0.824021 50.097382 -2.192752 -49.443958 128.530609 79.241498 -0.000000 -0.000007 0.000004 103.194179 -3.075980 12.249844 -0.000000 -0.000001 2.999997 -5.000219 7.998811 -0.000158 3.727267 -174.952659 1.655501 -179.999991 0.000005 -1.197000 175.155010 -3.099902 -0.475630 -0.000003 -0.000002 0.040579 68.974973 6.923834 2.050135 25.456957 -7.355616 0.000001 2.947635 171.408214 -2.097117 -0.000005 -0.000005 -1.042940 -8.938947 0.843628 0.767740 -0.000004 0.000001 -0.042507 71.102413 -6.106595 -4.127625 25.458570 7.355618 -0.002453 
52.437996 -9.248753 85.552811 -4.533952 2.380755 -4.718074 -1.229944 -0.125639 -0.025807 1.542875 -0.250993 -0.045387 3.187960 -0.251518 -0.042376 10.864389 0.728628 2.400661 3.084397 2.292487 2.067383 5.491310 -51.803095 7.632191 -43.157800 -129.777679 -96.669873 -0.000001 -0.000001 -0.000006 108.396796 9.754440 -21.137316 0.000005 -0.000001 -3.005820 -5.000237 -7.998714 0.000185 0.863349 50.114799 -2.238593 -49.430612 128.451365 79.148826 -0.000001 -0.000007 0.000003 103.195033 -3.071858 12.239380 -0.000001 -0.000000 2.999999 -5.000219 7.998811 -0.000156 3.715033 -174.954572 1.644366 -179.999991 0.000005 -1.196999 175.155475 -3.084958 -0.475336 -0.000003 -0.000002 0.040579 68.975540 6.924289 2.048983 25.456955 -7.355615 0.000000 2.947687 171.411206 -2.099672 -0.000005 -0.000005 -1.043630 -8.926071 0.851198 0.766555 -0.000003 0.000002 -0.042607 71.099612 -6.110443 -4.117117 25.458572 7.355618 -0.002454 
52.442097 -9.257498 85.567009 -4.526706 2.380988 -4.725660 -1.233003 -0.124950 -0.026851 1.536744 -0.249564 -0.047707 3.181829 -0.250117 -0.044714 10.878532 0.705207 2.401926 3.120295 2.308645 2.068822 5.551008 -51.796787 7.705586 -43.219262 -129.696249 -96.697249 -0.000001 -0.000000 -0.000006 108.385888 9.751740 -21.128915 0.000004 0.000000 -3.005819 -5.000240 -7.998712 0.000188 0.904331 50.137000 -2.285747 -49.421504 128.368515 79.059966 -0.000001 -0.000006 0.000001 103.196754 -3.067432 12.227912 -0.000003 0.000001 3.000002 -5.000221 7.998810 -0.000156 3.705326 -174.957522 1.630439 -179.999991 0.000005 -1.197000 175.156650 -3.064041 -0.474500 -0.000003 -0.000003 0.040578 68.976475 6.924907 2.047341 25.456957 -7.355616 0.000000 2.952887 171.413241 -2.105017 -0.000004 -0.000004 -1.044600 -8.909102 0.861071 0.765043 -0.000004 0.000001 -0.042757 71.095432 -6.115255 -4.104051 25.458576 7.355615 -0.002454 
52.435795 -9.255840 85.596901 -4.521607 2.382062 -4.733469 -1.235354 -0.124539 -0.027910 1.532044 -0.248675 -0.050187 3.177129 -0.249257 -0.047206 10.881488 0.685647 2.403947 3.174326 2.320667 2.070633 5.624079 -51.789107 7.795402 -43.276878 -129.606282 -96.709113 -0.000002 -0.000001 -0.000006 108.382589 9.748904 -21.125176 0.000003 -0.000000 -3.005822 -5.000238 -7.998707 0.000187 0.946446 50.163358 -2.333678 -49.415968 128.282837 78.974021 -0.000001 -0.000006 0.000004 103.199268 -3.062728 12.217436 -0.000001 -0.000001 3.000000 -5.000223 7.998813 -0.000156 3.697975 -174.961470 1.614165 -179.999991 0.000005 -1.197996 175.158412 -3.040134 -0.474393 -0.000003 -0.000002 0.040579 68.977657 6.925640 2.045404 25.456957 -7.355619 -0.000001 2.962571 171.415318 -2.112722 -0.000005 -0.000005 -1.045800 -8.888728 0.872855 0.763259 -0.000004 0.000002 -0.042947 71.089948 -6.120968 -4.088508 25.458570 7.355617 -0.002453 
